<?xml version="1.0" encoding="iso-8859-1"?>
<!-- Generator: Adobe Illustrator 19.0.0, SVG Export Plug-In . SVG Version: 6.00 Build 0)  -->
<svg version="1.1" id="Capa_1" xmlns="http://www.w3.org/2000/svg" xmlns:xlink="http://www.w3.org/1999/xlink" x="0px" y="0px"
	 viewBox="0 0 512 512" style="enable-background:new 0 0 512 512;" xml:space="preserve">
<path style="fill:#303C42;" d="M362.667,151.156V10.667C362.667,4.771,357.896,0,352,0H160c-5.896,0-10.667,4.771-10.667,10.667
	v140.49C136.917,155.563,128,167.427,128,181.333v112.354c0,25.885,4.875,51.208,14.5,75.271l28.938,72.333
	c1.604,4.052,5.542,6.708,9.896,6.708h32v53.333c0,5.896,4.771,10.667,10.667,10.667h64c5.896,0,10.667-4.771,10.667-10.667V448h32
	c4.354,0,8.292-2.656,9.896-6.708l28.938-72.333c9.625-24.063,14.5-49.385,14.5-75.271V181.333
	C384,167.427,375.083,155.563,362.667,151.156z"/>
<g>
	<rect x="234.667" y="448" style="fill:#0288D1;" width="42.667" height="42.667"/>
	<path style="fill:#0288D1;" d="M362.667,293.688c0,23.167-4.354,45.823-12.958,67.354l-26.271,65.625H188.563l-26.271-65.625
		c-8.604-21.531-12.958-44.188-12.958-67.354v-80.354h22.083c5.208,36.135,36.375,64,73.917,64h21.333
		c37.542,0,68.708-27.865,73.917-64h22.083V293.688z"/>
</g>
<path style="opacity:0.1;enable-background:new    ;" d="M340.583,213.333c-1.431,9.93-4.971,19.129-9.917,27.402v10.285
	c0,23.109-4.413,46.008-13.001,67.462l-11.529,28.798C297.258,369.46,275.775,384,251.887,384h-80.405l17.081,42.667h134.875
	l26.271-65.625c8.604-21.531,12.958-44.188,12.958-67.354v-80.354H340.583z"/>
<path id="SVGCleanerId_0" style="fill:#0288D1;" d="M224,128h-10.667V85.333h85.333V128H288c-5.896,0-10.667,4.771-10.667,10.667v96
	c0,11.76-9.563,21.333-21.333,21.333c-11.771,0-21.333-9.573-21.333-21.333v-96C234.667,132.771,229.896,128,224,128z"/>
<g>
	<path id="SVGCleanerId_0_1_" style="fill:#0288D1;" d="M224,128h-10.667V85.333h85.333V128H288
		c-5.896,0-10.667,4.771-10.667,10.667v96c0,11.76-9.563,21.333-21.333,21.333c-11.771,0-21.333-9.573-21.333-21.333v-96
		C234.667,132.771,229.896,128,224,128z"/>
</g>
<path style="fill:#FFFFFF;" d="M362.667,192h-32c-5.896,0-10.667,4.771-10.667,10.667c0,18.253-9.236,34.37-23.259,43.988
	c1.13-3.828,1.926-7.798,1.926-11.988v-85.333h10.667c5.896,0,10.667-4.771,10.667-10.667v-64C320,68.771,315.229,64,309.333,64
	H202.667C196.771,64,192,68.771,192,74.667v64c0,5.896,4.771,10.667,10.667,10.667h10.667v85.333c0,4.19,0.796,8.16,1.926,11.988
	C201.236,237.036,192,220.919,192,202.667c0-5.896-4.771-10.667-10.667-10.667h-32v-10.667c0-5.885,4.792-10.667,10.667-10.667
	c5.896,0,10.667-4.771,10.667-10.667V21.333h10.667V32c0,5.896,4.771,10.667,10.667,10.667c5.896,0,10.667-4.771,10.667-10.667
	V21.333H224V32c0,5.896,4.771,10.667,10.667,10.667S245.333,37.896,245.333,32V21.333h21.333V32c0,5.896,4.771,10.667,10.667,10.667
	S288,37.896,288,32V21.333h21.333V32c0,5.896,4.771,10.667,10.667,10.667c5.896,0,10.667-4.771,10.667-10.667V21.333h10.667V160
	c0,5.896,4.771,10.667,10.667,10.667c5.875,0,10.667,4.781,10.667,10.667V192z"/>
<linearGradient id="SVGID_1_" gradientUnits="userSpaceOnUse" x1="-35.2031" y1="625.9844" x2="-33.2031" y2="623.9844" gradientTransform="matrix(21.3333 0 0 -21.3333 996.3334 13791.667)">
	<stop  offset="0" style="stop-color:#000000;stop-opacity:0.1"/>
	<stop  offset="1" style="stop-color:#000000;stop-opacity:0"/>
</linearGradient>
<polygon style="fill:url(#SVGID_1_);" points="234.667,448 277.333,490.667 277.333,448 "/>
<linearGradient id="SVGID_2_" gradientUnits="userSpaceOnUse" x1="-42.9895" y1="639.0475" x2="-27.8519" y2="631.9892" gradientTransform="matrix(21.3333 0 0 -21.3333 996.3334 13791.667)">
	<stop  offset="0" style="stop-color:#FFFFFF;stop-opacity:0.2"/>
	<stop  offset="1" style="stop-color:#FFFFFF;stop-opacity:0"/>
</linearGradient>
<path style="fill:url(#SVGID_2_);" d="M362.667,151.156V10.667C362.667,4.771,357.896,0,352,0H160
	c-5.896,0-10.667,4.771-10.667,10.667v140.49C136.917,155.563,128,167.427,128,181.333v112.354c0,25.885,4.875,51.208,14.5,75.271
	l28.938,72.333c1.604,4.052,5.542,6.708,9.896,6.708h32v53.333c0,5.896,4.771,10.667,10.667,10.667h64
	c5.896,0,10.667-4.771,10.667-10.667V448h32c4.354,0,8.292-2.656,9.896-6.708l28.938-72.333c9.625-24.063,14.5-49.385,14.5-75.271
	V181.333C384,167.427,375.083,155.563,362.667,151.156z"/>
<g>
</g>
<g>
</g>
<g>
</g>
<g>
</g>
<g>
</g>
<g>
</g>
<g>
</g>
<g>
</g>
<g>
</g>
<g>
</g>
<g>
</g>
<g>
</g>
<g>
</g>
<g>
</g>
<g>
</g>
</svg>
