<?xml version="1.0" encoding="iso-8859-1"?>
<!-- Generator: Adobe Illustrator 19.0.0, SVG Export Plug-In . SVG Version: 6.00 Build 0)  -->
<svg version="1.1" id="Layer_1" xmlns="http://www.w3.org/2000/svg" xmlns:xlink="http://www.w3.org/1999/xlink" x="0px" y="0px"
	 viewBox="0 0 512 512" style="enable-background:new 0 0 512 512;" xml:space="preserve">
<path style="fill:#00D7DF;" d="M256,512C114.839,512,0,397.161,0,256S114.839,0,256,0s256,114.839,256,256S397.161,512,256,512z"/>
<path style="fill:#00B6BD;" d="M512,256C512,114.839,397.161,0,256,0v512C397.161,512,512,397.161,512,256z"/>
<path style="fill:#FFFFFF;" d="M356.196,339.496c-41.46,0-71.896-27.919-100.196-58.632c-28.294,30.713-58.73,58.632-100.196,58.632
	c-46.042,0-83.496-37.454-83.496-83.496s37.454-83.496,83.496-83.496c41.465,0,71.902,27.919,100.196,58.632
	c28.3-30.713,58.736-58.632,100.196-58.632c46.042,0,83.496,37.454,83.496,83.496S402.238,339.496,356.196,339.496z M278.516,256
	c24.706,27.022,48.885,50.098,77.68,50.098c27.625,0,50.098-22.473,50.098-50.098s-22.473-50.098-50.098-50.098
	C327.402,205.902,303.222,228.978,278.516,256z M155.804,205.902c-27.625,0-50.098,22.473-50.098,50.098
	s22.473,50.098,50.098,50.098c28.794,0,52.979-23.076,77.685-50.098C208.783,228.978,184.598,205.902,155.804,205.902z"/>
<path style="fill:#FFDAAA;" d="M356.196,339.496c46.042,0,83.496-37.454,83.496-83.496s-37.454-83.496-83.496-83.496
	c-41.46,0-71.896,27.919-100.196,58.632v49.728C284.3,311.577,314.736,339.496,356.196,339.496z M356.196,205.902
	c27.625,0,50.098,22.473,50.098,50.098s-22.473,50.098-50.098,50.098c-28.794,0-52.973-23.076-77.679-50.098
	C303.222,228.978,327.402,205.902,356.196,205.902z"/>
<g>
</g>
<g>
</g>
<g>
</g>
<g>
</g>
<g>
</g>
<g>
</g>
<g>
</g>
<g>
</g>
<g>
</g>
<g>
</g>
<g>
</g>
<g>
</g>
<g>
</g>
<g>
</g>
<g>
</g>
</svg>
