<svg xmlns="http://www.w3.org/2000/svg" viewBox="0 0 40 40"><defs><style>.cls-1{fill:#00243d;}.cls-2{fill:none;}</style></defs><title>Asset 134</title><g id="Layer_2" data-name="Layer 2"><g id="Layer_1-2" data-name="Layer 1"><path class="cls-1" d="M30.7,23a12,12,0,0,0-17-17L12.05,4.34A1.17,1.17,0,0,0,11.2,4a1.14,1.14,0,0,0-.81.37,15.52,15.52,0,0,0,10.82,26v2.31H16a2.3,2.3,0,0,0-2.3,2.3v1.72a.57.57,0,0,0,.58.57H29.26a.57.57,0,0,0,.57-.57V35a2.3,2.3,0,0,0-2.3-2.3H22.36V30.4a15.4,15.4,0,0,0,10-4.11,1.14,1.14,0,0,0,.37-.81,1.2,1.2,0,0,0-.34-.85Zm-2,12v1.14H14.89V35A1.15,1.15,0,0,1,16,33.86H27.53A1.14,1.14,0,0,1,28.68,35ZM21.79,4a10.92,10.92,0,1,1-6.2,19.9l2-5a1.16,1.16,0,0,0-.25-1.24l-2.85-2.85A1.14,1.14,0,0,0,13,14.68l-2.09,1.39a9.12,9.12,0,0,1-.07-1.18A10.93,10.93,0,0,1,21.79,4ZM11.15,17.31l2.52-1.68,2.85,2.85-1.87,4.66A10.87,10.87,0,0,1,11.15,17.31Zm.48,7.74a14.3,14.3,0,0,1-.39-19.89l1.63,1.63a12,12,0,0,0,17,17l1.64,1.64A14.32,14.32,0,0,1,11.63,25.05Z"/><path class="cls-1" d="M17.92,13.39l2.78,1.85,1,5a1.14,1.14,0,0,0,1.12.92h1.38a1.14,1.14,0,0,0,1.12-.87l1-3.9,1.85-.93a1.11,1.11,0,0,0,.58-.66l1-2.88h0a1.13,1.13,0,0,0-.28-1.17L27.53,8.91a1.11,1.11,0,0,0-.81-.34H20.37a1.15,1.15,0,0,0-1,.52L17.6,11.8a1.13,1.13,0,0,0-.17.86A1.16,1.16,0,0,0,17.92,13.39Zm2.45-3.67h6.35L28.6,11.6l-1,2.89-1.85.92a1.16,1.16,0,0,0-.6.75l-1,3.91H22.83l-1-5.06a1.15,1.15,0,0,0-.49-.73l-2.77-1.84Z"/><rect class="cls-2" width="40" height="40"/></g></g></svg>