<?xml version="1.0" encoding="utf-8"?>
<!-- Generator: Adobe Illustrator 24.3.0, SVG Export Plug-In . SVG Version: 6.00 Build 0)  -->
<svg version="1.1" id="Layer_1" xmlns="http://www.w3.org/2000/svg" xmlns:xlink="http://www.w3.org/1999/xlink" x="0px" y="0px"
	 viewBox="0 0 40 40" style="enable-background:new 0 0 40 40;" xml:space="preserve">
<style type="text/css">
	.st0{fill:none;stroke:#14263D;stroke-width:1.45;stroke-miterlimit:10;}
	.st1{fill:none;stroke:#14263D;stroke-width:1.45;stroke-linejoin:round;}
	.st2{fill:#020203;}
	.st3{fill-rule:evenodd;clip-rule:evenodd;fill:#020203;}
	.st4{fill:none;stroke:#14263D;stroke-width:1.1495;stroke-linejoin:round;}
	.st5{fill:none;stroke:#14263D;stroke-width:1.0759;stroke-linejoin:round;}
	.st6{fill:#13253B;}
</style>
<path class="st0" d="M7.5,21.7v14.7c0,0.7,0.6,1.2,1.2,1.2h6.9c0.6,0,1.1-0.5,1.2-1.2V21.7h7.9 M14,6.5c0.5,0,1,0.4,1,1v5
	c0,0.3-0.3,0.5-0.7,0.5h-4.1c-0.4,0-0.7-0.2-0.7-0.5V7.5c0-0.5,0.4-1,1-1L14,6.5z"/>
<path class="st0" d="M7.5,29.9l-3.2-2.3C4.1,27.4,4,27.1,4,26.8v-7.2C4,18.2,5.1,17,6.5,17h18.2"/>
<path class="st1" d="M35.9,9.8H24.7V3.5h11.1C36,3.5,36,3.5,36,3.6c0,0.1,0,0.1-0.1,0.1l-3.9,2.8L36,9.5c0.1,0.1,0.1,0.2,0,0.3
	C36,9.8,35.9,9.8,35.9,9.8L35.9,9.8z"/>
<path class="st0" d="M24.7,1v36.4"/>
</svg>
