<?xml version="1.0" encoding="utf-8"?>
<!-- Generator: Adobe Illustrator 24.1.2, SVG Export Plug-In . SVG Version: 6.00 Build 0)  -->
<svg version="1.1" id="Layer_1" xmlns="http://www.w3.org/2000/svg" xmlns:xlink="http://www.w3.org/1999/xlink" x="0px" y="0px"
	 viewBox="0 0 40 40" style="enable-background:new 0 0 40 40;" xml:space="preserve">
<style type="text/css">
	.st0{fill:#00243D;}
</style>
<g>
	<path class="st0" d="M20.3,20.1c-1.1,0.3-1.8,1.2-1.8,2.4c0,1.4,1.1,2.5,2.5,2.5c1.4,0,2.5-1.1,2.5-2.5c0-1.1-0.8-2.1-1.9-2.4v-4.4
		h-1.2V20.1z M22.2,22.5c0,0.7-0.6,1.2-1.2,1.2c-0.7,0-1.2-0.6-1.2-1.2c0-0.7,0.6-1.2,1.2-1.2C21.6,21.2,22.2,21.8,22.2,22.5z"/>
	<rect x="20.3" y="9.5" class="st0" width="1.2" height="2.5"/>
	<rect x="8" y="21.9" class="st0" width="2.5" height="1.2"/>
	<rect x="20.3" y="33" class="st0" width="1.2" height="2.5"/>
	<rect x="31.4" y="21.9" class="st0" width="2.5" height="1.2"/>
	<path class="st0" d="M34.4,13.9l1.6-2.9c0.3-0.5,0.2-1.1-0.2-1.5l-2-2c-0.4-0.4-1-0.5-1.5-0.2l-2.9,1.6c-1.5-1-3.2-1.7-5.1-2.1
		l-1-4.4c-0.1-0.6-0.6-1-1.2-1h-2.7c-0.6,0-1.1,0.4-1.2,1l-1,4.4c-0.7,0.2-1.5,0.4-2.2,0.7l0.5,1.1c1.6-0.6,3.4-1,5.2-1
		c8.2,0,14.8,6.6,14.8,14.8s-6.6,14.8-14.8,14.8S6.1,30.6,6.1,22.5c0-1.7,0.3-3.3,0.8-4.8H5.7c-0.3,0.8-0.5,1.6-0.6,2.5
		c-0.1,0.8-0.2,1.6-0.2,2.4c0,8.8,7.2,16,16,16s16-7.2,16-16C37,19.3,36,16.4,34.4,13.9z M20.9,6.4c-0.8,0-1.5,0.1-2.2,0.2l0.9-3.9
		h2.7l0.9,3.9C22.4,6.5,21.7,6.4,20.9,6.4z M30.6,9.7L33,8.4l2,2l-1.3,2.4C32.8,11.6,31.8,10.6,30.6,9.7z"/>
	<rect x="8" y="8.4" class="st0" width="1.2" height="2.5"/>
	<rect x="8" y="12.1" class="st0" width="1.2" height="1.2"/>
	<path class="st0" d="M7,16.4h3.2c0.3,0,0.6-0.1,0.9-0.4l2.7-2.7c0.2-0.2,0.4-0.5,0.4-0.9V9.2c0-0.3-0.1-0.6-0.4-0.9l-2.7-2.7
		c-0.2-0.2-0.5-0.4-0.9-0.4H7c-0.3,0-0.6,0.1-0.9,0.4L3.4,8.4C3.2,8.6,3,8.9,3,9.2v3.2c0,0.3,0.1,0.6,0.4,0.9L6.1,16
		C6.4,16.3,6.7,16.4,7,16.4z M4.3,9.2L7,6.5h3.2l2.7,2.7v3.2l-2.7,2.7H7l-2.7-2.7V9.2z"/>
</g>
</svg>
