<?xml version="1.0" encoding="utf-8"?>
<!-- Generator: Adobe Illustrator 24.3.0, SVG Export Plug-In . SVG Version: 6.00 Build 0)  -->
<svg version="1.1" id="Layer_1" xmlns="http://www.w3.org/2000/svg" xmlns:xlink="http://www.w3.org/1999/xlink" x="0px" y="0px"
	 viewBox="0 0 40 40" style="enable-background:new 0 0 40 40;" xml:space="preserve">
<style type="text/css">
	.st0{fill:none;stroke:#14263D;stroke-width:1.45;stroke-miterlimit:10;}
	.st1{fill:none;stroke:#14263D;stroke-width:1.45;stroke-linejoin:round;}
	.st2{fill:#020203;}
	.st3{fill-rule:evenodd;clip-rule:evenodd;fill:#020203;}
	.st4{fill:none;stroke:#14263D;stroke-width:1.1495;stroke-linejoin:round;}
	.st5{fill:none;stroke:#14263D;stroke-width:1.0759;stroke-linejoin:round;}
	.st6{fill:#13253B;}
</style>
<g>
	<path class="st6" d="M18,20.1c0.3-0.3,0.7-0.5,1.2-0.5c0.5,0,0.9,0.2,1.2,0.5c0.3,0.3,0.5,0.7,0.5,1.2c0,0.3,0.3,0.6,0.6,0.6
		c0.3,0,0.6-0.3,0.6-0.6c0-1.4-1-2.5-2.3-2.8v-1.1c0-0.3-0.3-0.6-0.6-0.6c-0.3,0-0.6,0.3-0.6,0.6v1.1c-1.3,0.3-2.3,1.4-2.3,2.8l0,0
		l0,0c0,0.4,0.1,0.8,0.3,1.1c0.3,0.6,0.8,0.9,1.3,1.2l0,0c0.8,0.4,1.6,0.6,2.1,1l0,0c0.3,0.2,0.5,0.3,0.6,0.5
		c0.1,0.2,0.2,0.4,0.2,0.7c0,0.5-0.2,0.9-0.5,1.2c-0.3,0.3-0.7,0.5-1.2,0.5c-0.5,0-0.9-0.2-1.2-0.5c-0.3-0.3-0.5-0.7-0.5-1.2
		c0-0.4-0.3-0.6-0.6-0.6c-0.4,0-0.6,0.3-0.6,0.6c0,1.4,1,2.5,2.3,2.8v1.1c0,0.3,0.3,0.6,0.6,0.6c0.4,0,0.6-0.3,0.6-0.6v-1.1
		c1.3-0.3,2.3-1.4,2.3-2.8l0,0h0c0-0.4-0.1-0.8-0.3-1.1c-0.3-0.6-0.8-1-1.3-1.2l0,0c-0.8-0.4-1.6-0.7-2.1-1l0,0l0,0
		c-0.3-0.2-0.5-0.3-0.6-0.5c-0.1-0.2-0.2-0.4-0.2-0.7C17.5,20.8,17.7,20.4,18,20.1z"/>
	<path class="st6" d="M33.9,28.7L33.9,28.7C33.9,28.7,33.9,28.7,33.9,28.7L33.9,28.7L33.9,28.7c0-1.3-0.5-2.5-1.5-3.4l0,0l0,0
		c0.2-0.9,0.3-1.8,0.3-2.6c0-2.6-0.8-5-2.1-7l0,0c-0.1-0.2-0.3-0.3-0.5-0.3c-0.1,0-0.2,0-0.3,0.1c-0.2,0.1-0.3,0.3-0.3,0.5
		c0,0.1,0,0.2,0.1,0.3l0,0c1.2,1.9,1.9,4.1,1.9,6.4c0,0.6-0.1,1.3-0.2,1.9c-0.6-0.3-1.2-0.4-1.8-0.4h0l0,0c0,0,0,0,0,0l0,0v0
		c-1.4,0-2.7,0.6-3.6,1.8c-1.5,2-1.7,4.3-1.7,5.9c0,0.6,0,1.1,0.1,1.5c0,0.2,0,0.3,0.1,0.4l0,0.1l0,0l0,0l0,0l0,0.1l0,0l0,0.1l0,0.1
		l0.1,0.1l0,0l0,0l0.2,0.1l0,0l0.1,0l0,0l0.1,0l0,0l0,0l0.1,0c0.1,0,0.3,0,0.7,0c0.8,0,2.1-0.1,3.5-0.5c1.4-0.4,2.9-1.2,4-2.6
		C33.6,30.6,33.9,29.7,33.9,28.7L33.9,28.7L33.9,28.7z M26.7,26.8c0.6-0.9,1.6-1.3,2.6-1.3c0.5,0,1,0.2,1.5,0.4
		c-0.9,3.1-2.9,5.5-5.6,7c0-0.3,0-0.6,0-1v0l0,0v0C25.2,30.4,25.5,28.4,26.7,26.8l-0.2-0.2L26.7,26.8z M32,30.7
		c-0.9,1.1-2.1,1.8-3.3,2.2c-0.4,0.1-0.9,0.2-1.3,0.3c2.1-1.5,3.8-3.8,4.6-6.4c0.4,0.6,0.7,1.3,0.7,2C32.6,29.4,32.4,30.1,32,30.7
		l0.2,0.2L32,30.7z"/>
	<path class="st6" d="M17.1,34.1L17.1,34.1c-2.1-0.4-4.1-1.5-5.7-3c1.5-0.8,2.5-2.3,2.5-4c0-0.3,0-0.7-0.1-1l0,0
		c-0.5-2.1-2.1-3.7-3.5-4.7c-0.7-0.5-1.4-0.9-1.9-1.1c-0.3-0.1-0.5-0.2-0.6-0.3l-0.2-0.1l0,0l0,0h0l0,0l0,0l-0.1,0l-0.1,0l-0.1,0
		l0,0l0,0l0,0L7,19.9l0,0L6.9,20L6.8,20l0,0l0,0l0,0l0,0c-0.2,0.3-2,2.8-2,6.1v0c0,0.6,0.1,1.2,0.2,1.9c0.5,2.1,2.3,3.5,4.4,3.5
		c0.2,0,0.4,0,0.6-0.1c1.8,1.9,4.2,3.3,6.8,3.8l0.1,0c0.3,0,0.6-0.2,0.6-0.5l0-0.1C17.6,34.4,17.4,34.1,17.1,34.1z M12.6,27
		c0,1.4-0.9,2.6-2.2,3c-1.1-1.4-2-3-2.4-4.9c-0.2-0.9-0.3-1.7-0.3-2.6c0-0.4,0-0.8,0.1-1.2c0.5,0.3,1.2,0.7,2,1.2
		c1.2,0.9,2.4,2.2,2.8,3.7l0,0C12.6,26.5,12.6,26.8,12.6,27z M6,26.1c0-1,0.2-2,0.5-2.8c0,0.7,0.1,1.4,0.3,2.1
		C7.2,27.3,8,28.9,9,30.2c-1.3-0.2-2.5-1.1-2.8-2.5C6.1,27.2,6,26.7,6,26.1L6,26.1z"/>
	<path class="st6" d="M9.4,15.7c0.1,0.1,0.2,0.1,0.4,0.1c0.2,0,0.4-0.1,0.5-0.3c1.2-1.6,2.7-2.8,4.6-3.7c0.4,2.1,2.2,3.6,4.4,3.6h0
		h0.1c2.1,0,3.9-0.8,5.2-1.5c1.3-0.8,2.1-1.5,2.1-1.5l0,0l0,0l0,0l0,0l0-0.1l0,0l0-0.1l0,0l0,0l0,0l0-0.2l0,0l0-0.1l0,0l0,0l0,0
		c0,0-0.7-1.3-2-2.6c-0.6-0.6-1.4-1.3-2.3-1.8c-0.9-0.5-1.9-0.8-3.1-0.9h0c-2.3,0-4.2,1.8-4.5,4.1c-2.2,0.9-4.1,2.4-5.5,4.3
		c-0.1,0.1-0.1,0.2-0.1,0.4C9.1,15.4,9.2,15.6,9.4,15.7z M19.2,7.8L19.2,7.8c0.9,0,1.8,0.3,2.5,0.7c0.9,0.5,1.7,1.2,2.3,1.9
		c-1.3-0.5-2.8-0.8-4.3-0.8l-0.1,0c-1.2,0-2.4,0.2-3.5,0.5C16.5,8.8,17.8,7.8,19.2,7.8z M23.6,13.1c-1.1,0.6-2.7,1.2-4.3,1.2l-0.1,0
		c-1.6,0-3-1.3-3.2-2.8c1.1-0.4,2.4-0.6,3.6-0.6l0.1,0c1.9,0,3.6,0.5,5.2,1.3C24.6,12.4,24.2,12.8,23.6,13.1l0.2,0.3L23.6,13.1z"/>
	<polygon class="st6" points="9.3,14.8 9.3,14.8 9.3,14.8 	"/>
</g>
</svg>
