<?xml version="1.0" encoding="utf-8"?>
<!-- Generator: Adobe Illustrator 24.3.0, SVG Export Plug-In . SVG Version: 6.00 Build 0)  -->
<svg version="1.1" id="Layer_1" xmlns="http://www.w3.org/2000/svg" xmlns:xlink="http://www.w3.org/1999/xlink" x="0px" y="0px"
	 viewBox="0 0 40 40" style="enable-background:new 0 0 40 40;" xml:space="preserve">
<style type="text/css">
	.st0{fill:#00243D;}
	.st1{fill-rule:evenodd;clip-rule:evenodd;}
</style>
<path class="st0" d="M32.5,23.5l0.5-0.6l-1.4-1.1v-0.2h4.1v-0.8h-4.1v-0.2l1.4-1.1l-0.5-0.6l-1.4,1.1c-0.2,0.2-0.3,0.4-0.3,0.6v1.3
	c0,0.3,0.1,0.5,0.3,0.6L32.5,23.5z"/>
<path class="st0" d="M34.9,26.7l-1.4,1.1l0.5,0.6l1.4-1.1c0.2-0.2,0.3-0.4,0.3-0.6v-1.3c0-0.3-0.1-0.5-0.3-0.6L34,23.7l-0.5,0.6
	l1.4,1.1v0.2h-4.1v0.8h4.1V26.7z"/>
<rect x="21.7" y="20.7" class="st0" width="0.8" height="6.6"/>
<rect x="17.5" y="20.7" class="st0" width="0.8" height="6.6"/>
<rect x="13.4" y="20.7" class="st0" width="0.8" height="6.6"/>
<rect x="9.2" y="20.7" class="st0" width="0.8" height="6.6"/>
<path class="st0" d="M26.6,30.6V17.4c0-0.5-0.4-0.8-0.8-0.8H5.9c-0.5,0-0.8,0.4-0.8,0.8v13.2H1v0.8H39v-0.8H26.6z M25.8,30.6H5.9
	V17.4h19.9V30.6z"/>
</svg>
